<mxfile host="app.diagrams.net" modified="2022-07-25T01:55:00.222Z" agent="5.0 (Macintosh; Intel Mac OS X 10_15_7) AppleWebKit/537.36 (KHTML, like Gecko) Chrome/103.0.0.0 Safari/537.36" etag="aFK60S3Xymi2zx9Olt_w" version="20.2.0" type="github">
  <diagram id="ocUT6-PdGzyXk6nP2TD0" name="Page-1">
    <mxGraphModel dx="946" dy="621" grid="1" gridSize="10" guides="1" tooltips="1" connect="1" arrows="1" fold="1" page="1" pageScale="1" pageWidth="850" pageHeight="1100" math="0" shadow="0">
      <root>
        <mxCell id="0" />
        <mxCell id="1" parent="0" />
        <mxCell id="0ZRMgZk0XnmUk2xPujtl-1" value="" style="rounded=0;whiteSpace=wrap;html=1;" vertex="1" parent="1">
          <mxGeometry x="120" y="160" width="200" height="240" as="geometry" />
        </mxCell>
        <mxCell id="0ZRMgZk0XnmUk2xPujtl-2" value="scopes" style="rounded=0;whiteSpace=wrap;html=1;" vertex="1" parent="1">
          <mxGeometry x="140" y="200" width="160" height="60" as="geometry" />
        </mxCell>
        <mxCell id="0ZRMgZk0XnmUk2xPujtl-3" value="" style="rounded=0;whiteSpace=wrap;html=1;" vertex="1" parent="1">
          <mxGeometry x="340" y="160" width="480" height="140" as="geometry" />
        </mxCell>
        <mxCell id="0ZRMgZk0XnmUk2xPujtl-4" value="name&lt;br&gt;version&lt;br&gt;schema_url" style="rounded=0;whiteSpace=wrap;html=1;" vertex="1" parent="1">
          <mxGeometry x="360" y="180" width="100" height="80" as="geometry" />
        </mxCell>
        <mxCell id="0ZRMgZk0XnmUk2xPujtl-5" value="exporter" style="rounded=0;whiteSpace=wrap;html=1;" vertex="1" parent="1">
          <mxGeometry x="140" y="300" width="160" height="60" as="geometry" />
        </mxCell>
        <mxCell id="0ZRMgZk0XnmUk2xPujtl-6" value="UniqueInstrumentMeterImpl&lt;br&gt;&lt;br&gt;&lt;br&gt;&lt;br&gt;&lt;br&gt;" style="rounded=0;whiteSpace=wrap;html=1;" vertex="1" parent="1">
          <mxGeometry x="480" y="180" width="320" height="100" as="geometry" />
        </mxCell>
        <mxCell id="0ZRMgZk0XnmUk2xPujtl-7" value="states" style="rounded=0;whiteSpace=wrap;html=1;" vertex="1" parent="1">
          <mxGeometry x="500" y="220" width="110" height="40" as="geometry" />
        </mxCell>
        <mxCell id="0ZRMgZk0XnmUk2xPujtl-8" value="sdkapi.MeterImpl&lt;br&gt;accumulatorCheckpointer" style="rounded=0;whiteSpace=wrap;html=1;" vertex="1" parent="1">
          <mxGeometry x="630" y="220" width="150" height="40" as="geometry" />
        </mxCell>
        <mxCell id="0ZRMgZk0XnmUk2xPujtl-11" value="" style="endArrow=none;dashed=1;html=1;rounded=0;exitX=1;exitY=0;exitDx=0;exitDy=0;entryX=0;entryY=0;entryDx=0;entryDy=0;" edge="1" parent="1" source="0ZRMgZk0XnmUk2xPujtl-2" target="0ZRMgZk0XnmUk2xPujtl-3">
          <mxGeometry width="50" height="50" relative="1" as="geometry">
            <mxPoint x="300" y="160" as="sourcePoint" />
            <mxPoint x="350" y="110" as="targetPoint" />
          </mxGeometry>
        </mxCell>
        <mxCell id="0ZRMgZk0XnmUk2xPujtl-12" value="" style="endArrow=none;dashed=1;html=1;rounded=0;exitX=1;exitY=1;exitDx=0;exitDy=0;entryX=0;entryY=1;entryDx=0;entryDy=0;" edge="1" parent="1" source="0ZRMgZk0XnmUk2xPujtl-2" target="0ZRMgZk0XnmUk2xPujtl-3">
          <mxGeometry width="50" height="50" relative="1" as="geometry">
            <mxPoint x="310" y="210" as="sourcePoint" />
            <mxPoint x="350" y="170" as="targetPoint" />
          </mxGeometry>
        </mxCell>
        <mxCell id="0ZRMgZk0XnmUk2xPujtl-13" value="" style="rounded=0;whiteSpace=wrap;html=1;" vertex="1" parent="1">
          <mxGeometry x="480" y="320" width="340" height="120" as="geometry" />
        </mxCell>
        <mxCell id="0ZRMgZk0XnmUk2xPujtl-14" value="descripter" style="rounded=0;whiteSpace=wrap;html=1;" vertex="1" parent="1">
          <mxGeometry x="490" y="330" width="120" height="30" as="geometry" />
        </mxCell>
        <mxCell id="0ZRMgZk0XnmUk2xPujtl-15" value="syncInstrument" style="rounded=0;whiteSpace=wrap;html=1;" vertex="1" parent="1">
          <mxGeometry x="490" y="370" width="120" height="60" as="geometry" />
        </mxCell>
        <mxCell id="0ZRMgZk0XnmUk2xPujtl-16" value="......." style="text;html=1;strokeColor=none;fillColor=none;align=center;verticalAlign=middle;whiteSpace=wrap;rounded=0;" vertex="1" parent="1">
          <mxGeometry x="610" y="385" width="60" height="30" as="geometry" />
        </mxCell>
        <mxCell id="0ZRMgZk0XnmUk2xPujtl-18" value="" style="endArrow=none;dashed=1;html=1;rounded=0;exitX=0;exitY=0;exitDx=0;exitDy=0;entryX=0;entryY=1;entryDx=0;entryDy=0;" edge="1" parent="1" source="0ZRMgZk0XnmUk2xPujtl-13" target="0ZRMgZk0XnmUk2xPujtl-7">
          <mxGeometry width="50" height="50" relative="1" as="geometry">
            <mxPoint x="310" y="210" as="sourcePoint" />
            <mxPoint x="350" y="170" as="targetPoint" />
          </mxGeometry>
        </mxCell>
        <mxCell id="0ZRMgZk0XnmUk2xPujtl-19" value="" style="endArrow=none;dashed=1;html=1;rounded=0;exitX=1;exitY=0;exitDx=0;exitDy=0;entryX=1;entryY=1;entryDx=0;entryDy=0;" edge="1" parent="1" source="0ZRMgZk0XnmUk2xPujtl-13" target="0ZRMgZk0XnmUk2xPujtl-7">
          <mxGeometry width="50" height="50" relative="1" as="geometry">
            <mxPoint x="490" y="330" as="sourcePoint" />
            <mxPoint x="510" y="270" as="targetPoint" />
          </mxGeometry>
        </mxCell>
      </root>
    </mxGraphModel>
  </diagram>
</mxfile>
